<?xml version="1.0" encoding="UTF-8" standalone="no"?>
<svg
   width="72"
   height="80"
   viewBox="0 0 120 120"
   version="1.1"
   id="svg18"
   sodipodi:docname="heroku-logo-cvtasks.svg"
   inkscape:version="1.1.1 (1:1.1+202109281949+c3084ef5ed)"
   xmlns:inkscape="http://www.inkscape.org/namespaces/inkscape"
   xmlns:sodipodi="http://sodipodi.sourceforge.net/DTD/sodipodi-0.dtd"
   xmlns="http://www.w3.org/2000/svg"
   xmlns:svg="http://www.w3.org/2000/svg">
  <sodipodi:namedview
     id="namedview13"
     pagecolor="#ffffff"
     bordercolor="#cccccc"
     borderopacity="1"
     inkscape:pageshadow="0"
     inkscape:pageopacity="1"
     inkscape:pagecheckerboard="0"
     showgrid="false"
     inkscape:zoom="9.975"
     inkscape:cx="36.0401"
     inkscape:cy="40"
     inkscape:window-width="1920"
     inkscape:window-height="999"
     inkscape:window-x="0"
     inkscape:window-y="0"
     inkscape:window-maximized="1"
     inkscape:current-layer="svg18" />
  <defs
     id="defs12">
    <radialGradient
       id="a"
       cx="50%"
       cy="50%"
       r="74.309%"
       fx="50%"
       fy="50%"
       gradientTransform="matrix(1 0 0 .9 0 .05)">
      <stop
         offset="0%"
         stop-color="#844DB8"
         id="stop2" />
      <stop
         offset="100%"
         stop-color="#5B16A3"
         id="stop4" />
    </radialGradient>
    <linearGradient
       id="c"
       x1="10.063%"
       x2="95.86%"
       y1="94.375%"
       y2="-.956%">
      <stop
         offset="0%"
         stop-color="#7673C0"
         stop-opacity=".5"
         id="stop7" />
      <stop
         offset="100%"
         stop-color="#7673C0"
         stop-opacity="0"
         id="stop9" />
    </linearGradient>
  </defs>
  <g
     fill="none"
     id="g16"
     inkscape:export-filename="/home/parnikkapore/Documents/html/cvtasks/rr-test/app/frontend/routes/login_provider_icons/heroku.png"
     inkscape:export-xdpi="300"
     inkscape:export-ydpi="300">
    <rect
       fill="url(#a)"
       x="0"
       y="0"
       width="120"
       height="120"
       id="rect14" />
  </g>
  <path
     fill="#ffffff"
     fill-rule="evenodd"
     d="m 87.471879,21.844603 c 3.792652,0 6.867977,3.075325 6.867977,6.867971 v 0 62.574846 c 0,3.792652 -3.075325,6.867981 -6.867977,6.867981 v 0 H 32.528117 c -3.792647,0 -6.867973,-3.075329 -6.867973,-6.867981 v 0 -62.574846 c 0,-3.792646 3.075326,-6.867971 6.867973,-6.867971 v 0 z m 0,3.815539 H 32.528117 c -1.682654,0 -3.052432,1.368826 -3.052432,3.052432 v 0 62.574846 c 0,1.682655 1.369778,3.052433 3.052432,3.052433 v 0 h 54.943762 c 1.683618,0 3.052433,-1.369778 3.052433,-3.052433 v 0 -62.574846 c 0,-1.683606 -1.368815,-3.052432 -3.052433,-3.052432 z m -43.687922,45.786473 8.584964,7.631087 -8.584964,7.631076 z m 7.63108,-38.155393 v 21.663681 c 3.809816,-1.24005 9.135352,-2.585982 14.308276,-2.585982 4.716955,0 7.54045,1.854352 9.078119,3.410138 3.145548,3.181201 3.317791,7.197289 3.322681,7.956282 l -7.9e-5,22.973437 H 70.492737 V 63.920465 c -0.03715,-1.780907 -0.894749,-3.920471 -4.769424,-3.920471 -7.411489,0 -15.684646,3.560705 -16.486324,3.913665 l -0.06262,0.02777 -5.390406,2.441946 V 33.291222 Z m 26.708776,0 c -0.515103,4.334453 -2.272154,8.489577 -5.723303,12.400505 v 0 h -7.631089 c 2.999012,-3.934777 4.881989,-8.07559 5.723316,-12.400505 v 0 z"
     id="path935"
     style="stroke-width:0.953885" />
</svg>
